<svg width="197" height="197" viewBox="0 0 197 197" fill="none" xmlns="http://www.w3.org/2000/svg">
<rect width="197" height="197" rx="98.5" fill="black"/>
<path fill-rule="evenodd" clip-rule="evenodd" d="M128.051 78.8C128.051 95.12 114.821 108.35 98.5012 108.35C82.1812 108.35 68.9512 95.12 68.9512 78.8C68.9512 62.48 82.1812 49.25 98.5012 49.25C114.821 49.25 128.051 62.48 128.051 78.8ZM118.201 78.8C118.201 89.68 109.381 98.5 98.5012 98.5C87.6212 98.5 78.8012 89.68 78.8012 78.8C78.8012 67.92 87.6212 59.1 98.5012 59.1C109.381 59.1 118.201 67.92 118.201 78.8Z" fill="white"/>
<path d="M98.5012 123.125C66.6149 123.125 39.4469 141.98 29.0979 168.396C31.619 170.899 34.2748 173.267 37.0534 175.488C44.7597 151.235 68.935 132.975 98.5012 132.975C128.067 132.975 152.243 151.235 159.949 175.488C162.728 173.267 165.383 170.899 167.905 168.396C157.556 141.98 130.388 123.125 98.5012 123.125Z" fill="white"/>
</svg>
